<svg xmlns="http://www.w3.org/2000/svg" width="1200" height="876" viewBox="0 0 1200 876" role="img" aria-labelledby="title desc">
  <title id="title">Public code activity — last 13 weeks</title>
  <desc id="desc">132 authored commits across 11 repositories, 2026-06-09 through 2026-09-07 UTC. Owned public non-fork, non-archived repositories, default branches only. Generated profile refreshes excluded. sourcesight-linux: 36; Vector_external: 32; O.R.B.I.T: 17; jonahchang207: 16; odyssey: 14; imperial-glass-omarchy: 5; odyssey-sim: 4; crimson-ronin: 3; handwave: 2; sapphire-ronin-omarchy-theme: 2; terminal-setup-clone: 1</desc>
  <rect x="1" y="1" width="1198" height="874" rx="20" fill="#0d1117" stroke="#293441"/>
  <text x="44" y="42" fill="#98a9bc" font-family="monospace" font-size="13" letter-spacing="2">THE LAB / PUBLIC CODE ACTIVITY</text>
  <g font-family="Arial, Helvetica, sans-serif">
    <text x="42" y="99" fill="#f0f6fc" font-size="42" font-weight="700">132<tspan dx="12" fill="#a7b6c8" font-size="25" font-weight="400">authored commits</tspan></text>
    <text x="44" y="132" fill="#a7b6c8" font-size="17">11 repositories · 13 weeks · generated refreshes excluded</text>
    <text x="1156" y="91" fill="#68e1c2" font-size="16" text-anchor="end">2026-06-09 — 2026-09-07</text>
    <text x="1156" y="118" fill="#98a9bc" font-size="14" text-anchor="end">Updated 2026-09-07 17:45 UTC</text>
    <path d="M44 151H1156" stroke="#293441"/>
    <g fill="#98a9bc" font-size="12" font-family="monospace" letter-spacing="1.5"><text x="44" y="177">REPOSITORY</text><text x="342" y="177">COMMITS / SAME SCALE</text><text x="776" y="177">WEEKLY ACTIVITY →</text><text x="1156" y="177" text-anchor="end">TOTAL</text></g>
    <g>
      <title>sourcesight-linux: 36 commits</title>
      <text x="44" y="207" fill="#f0f6fc" font-size="18">sourcesight-linux</text>
      <rect x="342" y="195" width="364" height="12" rx="6" fill="#202b35"/>
      <rect x="342" y="195" width="364.00" height="12" rx="6" fill="#68e1c2"/>
      <rect x="776" y="193" width="16" height="16" rx="4" fill="#202b35" opacity="1"><title>2026-06-09 to 2026-06-15: 0 commits</title></rect><rect x="798" y="193" width="16" height="16" rx="4" fill="#202b35" opacity="1"><title>2026-06-16 to 2026-06-22: 0 commits</title></rect><rect x="820" y="193" width="16" height="16" rx="4" fill="#202b35" opacity="1"><title>2026-06-23 to 2026-06-29: 0 commits</title></rect><rect x="842" y="193" width="16" height="16" rx="4" fill="#202b35" opacity="1"><title>2026-06-30 to 2026-07-06: 0 commits</title></rect><rect x="864" y="193" width="16" height="16" rx="4" fill="#202b35" opacity="1"><title>2026-07-07 to 2026-07-13: 0 commits</title></rect><rect x="886" y="193" width="16" height="16" rx="4" fill="#202b35" opacity="1"><title>2026-07-14 to 2026-07-20: 0 commits</title></rect><rect x="908" y="193" width="16" height="16" rx="4" fill="#202b35" opacity="1"><title>2026-07-21 to 2026-07-27: 0 commits</title></rect><rect x="930" y="193" width="16" height="16" rx="4" fill="#202b35" opacity="1"><title>2026-07-28 to 2026-08-03: 0 commits</title></rect><rect x="952" y="193" width="16" height="16" rx="4" fill="#202b35" opacity="1"><title>2026-08-04 to 2026-08-10: 0 commits</title></rect><rect x="974" y="193" width="16" height="16" rx="4" fill="#202b35" opacity="1"><title>2026-08-11 to 2026-08-17: 0 commits</title></rect><rect x="996" y="193" width="16" height="16" rx="4" fill="#202b35" opacity="1"><title>2026-08-18 to 2026-08-24: 0 commits</title></rect><rect x="1018" y="193" width="16" height="16" rx="4" fill="#68e1c2" opacity="1.000"><title>2026-08-25 to 2026-08-31: 35 commits</title></rect><rect x="1040" y="193" width="16" height="16" rx="4" fill="#68e1c2" opacity="0.271"><title>2026-09-01 to 2026-09-07: 1 commits</title></rect>
      <text x="1156" y="207" fill="#f0f6fc" font-size="20" font-weight="700" text-anchor="end">36</text>
    </g>
<g>
      <title>Vector_external: 32 commits</title>
      <text x="44" y="263" fill="#f0f6fc" font-size="18">Vector_external</text>
      <rect x="342" y="251" width="364" height="12" rx="6" fill="#202b35"/>
      <rect x="342" y="251" width="323.56" height="12" rx="6" fill="#68e1c2"/>
      <rect x="776" y="249" width="16" height="16" rx="4" fill="#202b35" opacity="1"><title>2026-06-09 to 2026-06-15: 0 commits</title></rect><rect x="798" y="249" width="16" height="16" rx="4" fill="#202b35" opacity="1"><title>2026-06-16 to 2026-06-22: 0 commits</title></rect><rect x="820" y="249" width="16" height="16" rx="4" fill="#202b35" opacity="1"><title>2026-06-23 to 2026-06-29: 0 commits</title></rect><rect x="842" y="249" width="16" height="16" rx="4" fill="#202b35" opacity="1"><title>2026-06-30 to 2026-07-06: 0 commits</title></rect><rect x="864" y="249" width="16" height="16" rx="4" fill="#202b35" opacity="1"><title>2026-07-07 to 2026-07-13: 0 commits</title></rect><rect x="886" y="249" width="16" height="16" rx="4" fill="#202b35" opacity="1"><title>2026-07-14 to 2026-07-20: 0 commits</title></rect><rect x="908" y="249" width="16" height="16" rx="4" fill="#202b35" opacity="1"><title>2026-07-21 to 2026-07-27: 0 commits</title></rect><rect x="930" y="249" width="16" height="16" rx="4" fill="#202b35" opacity="1"><title>2026-07-28 to 2026-08-03: 0 commits</title></rect><rect x="952" y="249" width="16" height="16" rx="4" fill="#68e1c2" opacity="0.807"><title>2026-08-04 to 2026-08-10: 26 commits</title></rect><rect x="974" y="249" width="16" height="16" rx="4" fill="#68e1c2" opacity="0.379"><title>2026-08-11 to 2026-08-17: 6 commits</title></rect><rect x="996" y="249" width="16" height="16" rx="4" fill="#202b35" opacity="1"><title>2026-08-18 to 2026-08-24: 0 commits</title></rect><rect x="1018" y="249" width="16" height="16" rx="4" fill="#202b35" opacity="1"><title>2026-08-25 to 2026-08-31: 0 commits</title></rect><rect x="1040" y="249" width="16" height="16" rx="4" fill="#202b35" opacity="1"><title>2026-09-01 to 2026-09-07: 0 commits</title></rect>
      <text x="1156" y="263" fill="#f0f6fc" font-size="20" font-weight="700" text-anchor="end">32</text>
    </g>
<g>
      <title>O.R.B.I.T: 17 commits</title>
      <text x="44" y="319" fill="#f0f6fc" font-size="18">O.R.B.I.T</text>
      <rect x="342" y="307" width="364" height="12" rx="6" fill="#202b35"/>
      <rect x="342" y="307" width="171.89" height="12" rx="6" fill="#68e1c2"/>
      <rect x="776" y="305" width="16" height="16" rx="4" fill="#202b35" opacity="1"><title>2026-06-09 to 2026-06-15: 0 commits</title></rect><rect x="798" y="305" width="16" height="16" rx="4" fill="#202b35" opacity="1"><title>2026-06-16 to 2026-06-22: 0 commits</title></rect><rect x="820" y="305" width="16" height="16" rx="4" fill="#202b35" opacity="1"><title>2026-06-23 to 2026-06-29: 0 commits</title></rect><rect x="842" y="305" width="16" height="16" rx="4" fill="#68e1c2" opacity="0.379"><title>2026-06-30 to 2026-07-06: 6 commits</title></rect><rect x="864" y="305" width="16" height="16" rx="4" fill="#202b35" opacity="1"><title>2026-07-07 to 2026-07-13: 0 commits</title></rect><rect x="886" y="305" width="16" height="16" rx="4" fill="#68e1c2" opacity="0.379"><title>2026-07-14 to 2026-07-20: 6 commits</title></rect><rect x="908" y="305" width="16" height="16" rx="4" fill="#68e1c2" opacity="0.357"><title>2026-07-21 to 2026-07-27: 5 commits</title></rect><rect x="930" y="305" width="16" height="16" rx="4" fill="#202b35" opacity="1"><title>2026-07-28 to 2026-08-03: 0 commits</title></rect><rect x="952" y="305" width="16" height="16" rx="4" fill="#202b35" opacity="1"><title>2026-08-04 to 2026-08-10: 0 commits</title></rect><rect x="974" y="305" width="16" height="16" rx="4" fill="#202b35" opacity="1"><title>2026-08-11 to 2026-08-17: 0 commits</title></rect><rect x="996" y="305" width="16" height="16" rx="4" fill="#202b35" opacity="1"><title>2026-08-18 to 2026-08-24: 0 commits</title></rect><rect x="1018" y="305" width="16" height="16" rx="4" fill="#202b35" opacity="1"><title>2026-08-25 to 2026-08-31: 0 commits</title></rect><rect x="1040" y="305" width="16" height="16" rx="4" fill="#202b35" opacity="1"><title>2026-09-01 to 2026-09-07: 0 commits</title></rect>
      <text x="1156" y="319" fill="#f0f6fc" font-size="20" font-weight="700" text-anchor="end">17</text>
    </g>
<g>
      <title>jonahchang207: 16 commits</title>
      <text x="44" y="375" fill="#f0f6fc" font-size="18">jonahchang207</text>
      <rect x="342" y="363" width="364" height="12" rx="6" fill="#202b35"/>
      <rect x="342" y="363" width="161.78" height="12" rx="6" fill="#68e1c2"/>
      <rect x="776" y="361" width="16" height="16" rx="4" fill="#202b35" opacity="1"><title>2026-06-09 to 2026-06-15: 0 commits</title></rect><rect x="798" y="361" width="16" height="16" rx="4" fill="#202b35" opacity="1"><title>2026-06-16 to 2026-06-22: 0 commits</title></rect><rect x="820" y="361" width="16" height="16" rx="4" fill="#202b35" opacity="1"><title>2026-06-23 to 2026-06-29: 0 commits</title></rect><rect x="842" y="361" width="16" height="16" rx="4" fill="#202b35" opacity="1"><title>2026-06-30 to 2026-07-06: 0 commits</title></rect><rect x="864" y="361" width="16" height="16" rx="4" fill="#202b35" opacity="1"><title>2026-07-07 to 2026-07-13: 0 commits</title></rect><rect x="886" y="361" width="16" height="16" rx="4" fill="#202b35" opacity="1"><title>2026-07-14 to 2026-07-20: 0 commits</title></rect><rect x="908" y="361" width="16" height="16" rx="4" fill="#68e1c2" opacity="0.379"><title>2026-07-21 to 2026-07-27: 6 commits</title></rect><rect x="930" y="361" width="16" height="16" rx="4" fill="#68e1c2" opacity="0.293"><title>2026-07-28 to 2026-08-03: 2 commits</title></rect><rect x="952" y="361" width="16" height="16" rx="4" fill="#202b35" opacity="1"><title>2026-08-04 to 2026-08-10: 0 commits</title></rect><rect x="974" y="361" width="16" height="16" rx="4" fill="#68e1c2" opacity="0.379"><title>2026-08-11 to 2026-08-17: 6 commits</title></rect><rect x="996" y="361" width="16" height="16" rx="4" fill="#202b35" opacity="1"><title>2026-08-18 to 2026-08-24: 0 commits</title></rect><rect x="1018" y="361" width="16" height="16" rx="4" fill="#202b35" opacity="1"><title>2026-08-25 to 2026-08-31: 0 commits</title></rect><rect x="1040" y="361" width="16" height="16" rx="4" fill="#68e1c2" opacity="0.293"><title>2026-09-01 to 2026-09-07: 2 commits</title></rect>
      <text x="1156" y="375" fill="#f0f6fc" font-size="20" font-weight="700" text-anchor="end">16</text>
    </g>
<g>
      <title>odyssey: 14 commits</title>
      <text x="44" y="431" fill="#f0f6fc" font-size="18">odyssey</text>
      <rect x="342" y="419" width="364" height="12" rx="6" fill="#202b35"/>
      <rect x="342" y="419" width="141.56" height="12" rx="6" fill="#68e1c2"/>
      <rect x="776" y="417" width="16" height="16" rx="4" fill="#68e1c2" opacity="0.507"><title>2026-06-09 to 2026-06-15: 12 commits</title></rect><rect x="798" y="417" width="16" height="16" rx="4" fill="#202b35" opacity="1"><title>2026-06-16 to 2026-06-22: 0 commits</title></rect><rect x="820" y="417" width="16" height="16" rx="4" fill="#202b35" opacity="1"><title>2026-06-23 to 2026-06-29: 0 commits</title></rect><rect x="842" y="417" width="16" height="16" rx="4" fill="#202b35" opacity="1"><title>2026-06-30 to 2026-07-06: 0 commits</title></rect><rect x="864" y="417" width="16" height="16" rx="4" fill="#202b35" opacity="1"><title>2026-07-07 to 2026-07-13: 0 commits</title></rect><rect x="886" y="417" width="16" height="16" rx="4" fill="#202b35" opacity="1"><title>2026-07-14 to 2026-07-20: 0 commits</title></rect><rect x="908" y="417" width="16" height="16" rx="4" fill="#202b35" opacity="1"><title>2026-07-21 to 2026-07-27: 0 commits</title></rect><rect x="930" y="417" width="16" height="16" rx="4" fill="#202b35" opacity="1"><title>2026-07-28 to 2026-08-03: 0 commits</title></rect><rect x="952" y="417" width="16" height="16" rx="4" fill="#202b35" opacity="1"><title>2026-08-04 to 2026-08-10: 0 commits</title></rect><rect x="974" y="417" width="16" height="16" rx="4" fill="#202b35" opacity="1"><title>2026-08-11 to 2026-08-17: 0 commits</title></rect><rect x="996" y="417" width="16" height="16" rx="4" fill="#202b35" opacity="1"><title>2026-08-18 to 2026-08-24: 0 commits</title></rect><rect x="1018" y="417" width="16" height="16" rx="4" fill="#68e1c2" opacity="0.293"><title>2026-08-25 to 2026-08-31: 2 commits</title></rect><rect x="1040" y="417" width="16" height="16" rx="4" fill="#202b35" opacity="1"><title>2026-09-01 to 2026-09-07: 0 commits</title></rect>
      <text x="1156" y="431" fill="#f0f6fc" font-size="20" font-weight="700" text-anchor="end">14</text>
    </g>
<g>
      <title>imperial-glass-omarchy: 5 commits</title>
      <text x="44" y="487" fill="#f0f6fc" font-size="18">imperial-glass-omarchy</text>
      <rect x="342" y="475" width="364" height="12" rx="6" fill="#202b35"/>
      <rect x="342" y="475" width="50.56" height="12" rx="6" fill="#68e1c2"/>
      <rect x="776" y="473" width="16" height="16" rx="4" fill="#202b35" opacity="1"><title>2026-06-09 to 2026-06-15: 0 commits</title></rect><rect x="798" y="473" width="16" height="16" rx="4" fill="#202b35" opacity="1"><title>2026-06-16 to 2026-06-22: 0 commits</title></rect><rect x="820" y="473" width="16" height="16" rx="4" fill="#202b35" opacity="1"><title>2026-06-23 to 2026-06-29: 0 commits</title></rect><rect x="842" y="473" width="16" height="16" rx="4" fill="#202b35" opacity="1"><title>2026-06-30 to 2026-07-06: 0 commits</title></rect><rect x="864" y="473" width="16" height="16" rx="4" fill="#202b35" opacity="1"><title>2026-07-07 to 2026-07-13: 0 commits</title></rect><rect x="886" y="473" width="16" height="16" rx="4" fill="#202b35" opacity="1"><title>2026-07-14 to 2026-07-20: 0 commits</title></rect><rect x="908" y="473" width="16" height="16" rx="4" fill="#202b35" opacity="1"><title>2026-07-21 to 2026-07-27: 0 commits</title></rect><rect x="930" y="473" width="16" height="16" rx="4" fill="#202b35" opacity="1"><title>2026-07-28 to 2026-08-03: 0 commits</title></rect><rect x="952" y="473" width="16" height="16" rx="4" fill="#202b35" opacity="1"><title>2026-08-04 to 2026-08-10: 0 commits</title></rect><rect x="974" y="473" width="16" height="16" rx="4" fill="#202b35" opacity="1"><title>2026-08-11 to 2026-08-17: 0 commits</title></rect><rect x="996" y="473" width="16" height="16" rx="4" fill="#202b35" opacity="1"><title>2026-08-18 to 2026-08-24: 0 commits</title></rect><rect x="1018" y="473" width="16" height="16" rx="4" fill="#202b35" opacity="1"><title>2026-08-25 to 2026-08-31: 0 commits</title></rect><rect x="1040" y="473" width="16" height="16" rx="4" fill="#68e1c2" opacity="0.357"><title>2026-09-01 to 2026-09-07: 5 commits</title></rect>
      <text x="1156" y="487" fill="#f0f6fc" font-size="20" font-weight="700" text-anchor="end">5</text>
    </g>
<g>
      <title>odyssey-sim: 4 commits</title>
      <text x="44" y="543" fill="#f0f6fc" font-size="18">odyssey-sim</text>
      <rect x="342" y="531" width="364" height="12" rx="6" fill="#202b35"/>
      <rect x="342" y="531" width="40.44" height="12" rx="6" fill="#68e1c2"/>
      <rect x="776" y="529" width="16" height="16" rx="4" fill="#68e1c2" opacity="0.336"><title>2026-06-09 to 2026-06-15: 4 commits</title></rect><rect x="798" y="529" width="16" height="16" rx="4" fill="#202b35" opacity="1"><title>2026-06-16 to 2026-06-22: 0 commits</title></rect><rect x="820" y="529" width="16" height="16" rx="4" fill="#202b35" opacity="1"><title>2026-06-23 to 2026-06-29: 0 commits</title></rect><rect x="842" y="529" width="16" height="16" rx="4" fill="#202b35" opacity="1"><title>2026-06-30 to 2026-07-06: 0 commits</title></rect><rect x="864" y="529" width="16" height="16" rx="4" fill="#202b35" opacity="1"><title>2026-07-07 to 2026-07-13: 0 commits</title></rect><rect x="886" y="529" width="16" height="16" rx="4" fill="#202b35" opacity="1"><title>2026-07-14 to 2026-07-20: 0 commits</title></rect><rect x="908" y="529" width="16" height="16" rx="4" fill="#202b35" opacity="1"><title>2026-07-21 to 2026-07-27: 0 commits</title></rect><rect x="930" y="529" width="16" height="16" rx="4" fill="#202b35" opacity="1"><title>2026-07-28 to 2026-08-03: 0 commits</title></rect><rect x="952" y="529" width="16" height="16" rx="4" fill="#202b35" opacity="1"><title>2026-08-04 to 2026-08-10: 0 commits</title></rect><rect x="974" y="529" width="16" height="16" rx="4" fill="#202b35" opacity="1"><title>2026-08-11 to 2026-08-17: 0 commits</title></rect><rect x="996" y="529" width="16" height="16" rx="4" fill="#202b35" opacity="1"><title>2026-08-18 to 2026-08-24: 0 commits</title></rect><rect x="1018" y="529" width="16" height="16" rx="4" fill="#202b35" opacity="1"><title>2026-08-25 to 2026-08-31: 0 commits</title></rect><rect x="1040" y="529" width="16" height="16" rx="4" fill="#202b35" opacity="1"><title>2026-09-01 to 2026-09-07: 0 commits</title></rect>
      <text x="1156" y="543" fill="#f0f6fc" font-size="20" font-weight="700" text-anchor="end">4</text>
    </g>
<g>
      <title>crimson-ronin: 3 commits</title>
      <text x="44" y="599" fill="#f0f6fc" font-size="18">crimson-ronin</text>
      <rect x="342" y="587" width="364" height="12" rx="6" fill="#202b35"/>
      <rect x="342" y="587" width="30.33" height="12" rx="6" fill="#68e1c2"/>
      <rect x="776" y="585" width="16" height="16" rx="4" fill="#202b35" opacity="1"><title>2026-06-09 to 2026-06-15: 0 commits</title></rect><rect x="798" y="585" width="16" height="16" rx="4" fill="#202b35" opacity="1"><title>2026-06-16 to 2026-06-22: 0 commits</title></rect><rect x="820" y="585" width="16" height="16" rx="4" fill="#202b35" opacity="1"><title>2026-06-23 to 2026-06-29: 0 commits</title></rect><rect x="842" y="585" width="16" height="16" rx="4" fill="#202b35" opacity="1"><title>2026-06-30 to 2026-07-06: 0 commits</title></rect><rect x="864" y="585" width="16" height="16" rx="4" fill="#202b35" opacity="1"><title>2026-07-07 to 2026-07-13: 0 commits</title></rect><rect x="886" y="585" width="16" height="16" rx="4" fill="#202b35" opacity="1"><title>2026-07-14 to 2026-07-20: 0 commits</title></rect><rect x="908" y="585" width="16" height="16" rx="4" fill="#202b35" opacity="1"><title>2026-07-21 to 2026-07-27: 0 commits</title></rect><rect x="930" y="585" width="16" height="16" rx="4" fill="#202b35" opacity="1"><title>2026-07-28 to 2026-08-03: 0 commits</title></rect><rect x="952" y="585" width="16" height="16" rx="4" fill="#202b35" opacity="1"><title>2026-08-04 to 2026-08-10: 0 commits</title></rect><rect x="974" y="585" width="16" height="16" rx="4" fill="#202b35" opacity="1"><title>2026-08-11 to 2026-08-17: 0 commits</title></rect><rect x="996" y="585" width="16" height="16" rx="4" fill="#202b35" opacity="1"><title>2026-08-18 to 2026-08-24: 0 commits</title></rect><rect x="1018" y="585" width="16" height="16" rx="4" fill="#202b35" opacity="1"><title>2026-08-25 to 2026-08-31: 0 commits</title></rect><rect x="1040" y="585" width="16" height="16" rx="4" fill="#68e1c2" opacity="0.314"><title>2026-09-01 to 2026-09-07: 3 commits</title></rect>
      <text x="1156" y="599" fill="#f0f6fc" font-size="20" font-weight="700" text-anchor="end">3</text>
    </g>
<g>
      <title>handwave: 2 commits</title>
      <text x="44" y="655" fill="#f0f6fc" font-size="18">handwave</text>
      <rect x="342" y="643" width="364" height="12" rx="6" fill="#202b35"/>
      <rect x="342" y="643" width="20.22" height="12" rx="6" fill="#68e1c2"/>
      <rect x="776" y="641" width="16" height="16" rx="4" fill="#68e1c2" opacity="0.293"><title>2026-06-09 to 2026-06-15: 2 commits</title></rect><rect x="798" y="641" width="16" height="16" rx="4" fill="#202b35" opacity="1"><title>2026-06-16 to 2026-06-22: 0 commits</title></rect><rect x="820" y="641" width="16" height="16" rx="4" fill="#202b35" opacity="1"><title>2026-06-23 to 2026-06-29: 0 commits</title></rect><rect x="842" y="641" width="16" height="16" rx="4" fill="#202b35" opacity="1"><title>2026-06-30 to 2026-07-06: 0 commits</title></rect><rect x="864" y="641" width="16" height="16" rx="4" fill="#202b35" opacity="1"><title>2026-07-07 to 2026-07-13: 0 commits</title></rect><rect x="886" y="641" width="16" height="16" rx="4" fill="#202b35" opacity="1"><title>2026-07-14 to 2026-07-20: 0 commits</title></rect><rect x="908" y="641" width="16" height="16" rx="4" fill="#202b35" opacity="1"><title>2026-07-21 to 2026-07-27: 0 commits</title></rect><rect x="930" y="641" width="16" height="16" rx="4" fill="#202b35" opacity="1"><title>2026-07-28 to 2026-08-03: 0 commits</title></rect><rect x="952" y="641" width="16" height="16" rx="4" fill="#202b35" opacity="1"><title>2026-08-04 to 2026-08-10: 0 commits</title></rect><rect x="974" y="641" width="16" height="16" rx="4" fill="#202b35" opacity="1"><title>2026-08-11 to 2026-08-17: 0 commits</title></rect><rect x="996" y="641" width="16" height="16" rx="4" fill="#202b35" opacity="1"><title>2026-08-18 to 2026-08-24: 0 commits</title></rect><rect x="1018" y="641" width="16" height="16" rx="4" fill="#202b35" opacity="1"><title>2026-08-25 to 2026-08-31: 0 commits</title></rect><rect x="1040" y="641" width="16" height="16" rx="4" fill="#202b35" opacity="1"><title>2026-09-01 to 2026-09-07: 0 commits</title></rect>
      <text x="1156" y="655" fill="#f0f6fc" font-size="20" font-weight="700" text-anchor="end">2</text>
    </g>
<g>
      <title>sapphire-ronin-omarchy-theme: 2 commits</title>
      <text x="44" y="711" fill="#f0f6fc" font-size="18">sapphire-ronin-omarchy-th…</text>
      <rect x="342" y="699" width="364" height="12" rx="6" fill="#202b35"/>
      <rect x="342" y="699" width="20.22" height="12" rx="6" fill="#68e1c2"/>
      <rect x="776" y="697" width="16" height="16" rx="4" fill="#202b35" opacity="1"><title>2026-06-09 to 2026-06-15: 0 commits</title></rect><rect x="798" y="697" width="16" height="16" rx="4" fill="#202b35" opacity="1"><title>2026-06-16 to 2026-06-22: 0 commits</title></rect><rect x="820" y="697" width="16" height="16" rx="4" fill="#202b35" opacity="1"><title>2026-06-23 to 2026-06-29: 0 commits</title></rect><rect x="842" y="697" width="16" height="16" rx="4" fill="#202b35" opacity="1"><title>2026-06-30 to 2026-07-06: 0 commits</title></rect><rect x="864" y="697" width="16" height="16" rx="4" fill="#202b35" opacity="1"><title>2026-07-07 to 2026-07-13: 0 commits</title></rect><rect x="886" y="697" width="16" height="16" rx="4" fill="#202b35" opacity="1"><title>2026-07-14 to 2026-07-20: 0 commits</title></rect><rect x="908" y="697" width="16" height="16" rx="4" fill="#202b35" opacity="1"><title>2026-07-21 to 2026-07-27: 0 commits</title></rect><rect x="930" y="697" width="16" height="16" rx="4" fill="#202b35" opacity="1"><title>2026-07-28 to 2026-08-03: 0 commits</title></rect><rect x="952" y="697" width="16" height="16" rx="4" fill="#202b35" opacity="1"><title>2026-08-04 to 2026-08-10: 0 commits</title></rect><rect x="974" y="697" width="16" height="16" rx="4" fill="#202b35" opacity="1"><title>2026-08-11 to 2026-08-17: 0 commits</title></rect><rect x="996" y="697" width="16" height="16" rx="4" fill="#202b35" opacity="1"><title>2026-08-18 to 2026-08-24: 0 commits</title></rect><rect x="1018" y="697" width="16" height="16" rx="4" fill="#202b35" opacity="1"><title>2026-08-25 to 2026-08-31: 0 commits</title></rect><rect x="1040" y="697" width="16" height="16" rx="4" fill="#68e1c2" opacity="0.293"><title>2026-09-01 to 2026-09-07: 2 commits</title></rect>
      <text x="1156" y="711" fill="#f0f6fc" font-size="20" font-weight="700" text-anchor="end">2</text>
    </g>
<g>
      <title>terminal-setup-clone: 1 commits</title>
      <text x="44" y="767" fill="#f0f6fc" font-size="18">terminal-setup-clone</text>
      <rect x="342" y="755" width="364" height="12" rx="6" fill="#202b35"/>
      <rect x="342" y="755" width="10.11" height="12" rx="6" fill="#68e1c2"/>
      <rect x="776" y="753" width="16" height="16" rx="4" fill="#202b35" opacity="1"><title>2026-06-09 to 2026-06-15: 0 commits</title></rect><rect x="798" y="753" width="16" height="16" rx="4" fill="#202b35" opacity="1"><title>2026-06-16 to 2026-06-22: 0 commits</title></rect><rect x="820" y="753" width="16" height="16" rx="4" fill="#202b35" opacity="1"><title>2026-06-23 to 2026-06-29: 0 commits</title></rect><rect x="842" y="753" width="16" height="16" rx="4" fill="#202b35" opacity="1"><title>2026-06-30 to 2026-07-06: 0 commits</title></rect><rect x="864" y="753" width="16" height="16" rx="4" fill="#202b35" opacity="1"><title>2026-07-07 to 2026-07-13: 0 commits</title></rect><rect x="886" y="753" width="16" height="16" rx="4" fill="#202b35" opacity="1"><title>2026-07-14 to 2026-07-20: 0 commits</title></rect><rect x="908" y="753" width="16" height="16" rx="4" fill="#202b35" opacity="1"><title>2026-07-21 to 2026-07-27: 0 commits</title></rect><rect x="930" y="753" width="16" height="16" rx="4" fill="#202b35" opacity="1"><title>2026-07-28 to 2026-08-03: 0 commits</title></rect><rect x="952" y="753" width="16" height="16" rx="4" fill="#202b35" opacity="1"><title>2026-08-04 to 2026-08-10: 0 commits</title></rect><rect x="974" y="753" width="16" height="16" rx="4" fill="#68e1c2" opacity="0.271"><title>2026-08-11 to 2026-08-17: 1 commits</title></rect><rect x="996" y="753" width="16" height="16" rx="4" fill="#202b35" opacity="1"><title>2026-08-18 to 2026-08-24: 0 commits</title></rect><rect x="1018" y="753" width="16" height="16" rx="4" fill="#202b35" opacity="1"><title>2026-08-25 to 2026-08-31: 0 commits</title></rect><rect x="1040" y="753" width="16" height="16" rx="4" fill="#202b35" opacity="1"><title>2026-09-01 to 2026-09-07: 0 commits</title></rect>
      <text x="1156" y="767" fill="#f0f6fc" font-size="20" font-weight="700" text-anchor="end">1</text>
    </g>
    <path d="M44 813H1156" stroke="#293441"/>
    <text x="44" y="845" fill="#98a9bc" font-size="14">Default branches · author dates in UTC · latest week is partial</text>
    <text x="1156" y="845" fill="#98a9bc" font-size="14" text-anchor="end">Weekly color: 0 → 35 commits · shared scale</text>
  </g>
</svg>
